<?xml version="1.0" standalone="no"?>
<!DOCTYPE svg PUBLIC "-//W3C//DTD SVG 20010904//EN"
 "http://www.w3.org/TR/2001/REC-SVG-20010904/DTD/svg10.dtd">
<svg version="1.0" xmlns="http://www.w3.org/2000/svg"
 width="531.000000pt" height="531.000000pt" viewBox="0 0 531.000000 531.000000"
 preserveAspectRatio="xMidYMid meet">
<metadata>
Created by potrace 1.14, written by Peter Selinger 2001-2017
</metadata>
<g transform="translate(0.000000,531.000000) scale(0.100000,-0.100000)"
fill="#000000" stroke="none">
<path d="M2572 4854 c-105 -63 -99 -204 11 -279 13 -9 12 -23 -8 -115 -63
-296 -152 -551 -241 -692 -13 -21 -24 -40 -24 -44 0 -3 73 -2 163 2 89 4 228
7 309 8 81 1 149 4 152 7 3 3 -23 70 -58 150 -86 195 -153 382 -182 509 -32
139 -31 166 1 174 34 9 79 58 92 100 21 69 -11 156 -69 187 -40 22 -103 19
-146 -7z"/>
<path d="M3863 4533 c-21 -7 -39 -13 -40 -13 0 0 -14 -20 -30 -44 -36 -54 -38
-125 -4 -181 l21 -36 -86 -137 c-93 -147 -186 -285 -213 -315 -34 -40 -130 7
-176 87 -34 60 -66 195 -69 296 -1 31 3 37 35 52 45 21 85 68 98 113 13 50 -4
102 -49 147 -33 33 -44 38 -84 38 -26 0 -59 -6 -74 -14 -72 -38 -102 -142 -61
-215 12 -23 25 -41 28 -41 3 0 17 -9 30 -19 23 -17 23 -18 6 -52 -23 -45 -158
-175 -228 -219 -59 -37 -73 -55 -59 -74 9 -10 41 -67 84 -147 17 -30 32 -39
96 -63 42 -16 118 -47 167 -70 50 -22 101 -40 115 -40 52 3 155 16 162 20 5 3
-1 -19 -13 -48 -12 -29 -29 -75 -37 -103 -9 -27 -17 -51 -18 -53 -1 -2 -46 11
-100 28 -55 17 -112 35 -129 40 -50 15 -282 60 -348 67 -135 14 -335 7 -477
-17 -30 -5 -66 -11 -80 -14 -60 -10 -239 -49 -286 -62 -28 -8 -60 -16 -70 -19
-11 -2 -57 -15 -103 -29 -47 -14 -88 -23 -92 -20 -4 2 -9 21 -12 41 -6 47 -11
65 -19 79 -4 6 -12 23 -18 38 l-10 28 77 -7 c43 -4 83 -7 88 -7 6 -1 35 10 65
24 30 13 105 46 165 72 84 36 115 55 132 79 12 18 46 68 77 111 30 44 53 83
51 86 -2 4 -34 24 -70 46 -75 43 -177 138 -220 202 -27 41 -28 43 -9 57 10 8
22 15 26 15 4 0 19 20 34 45 21 37 25 54 21 89 -8 65 -31 101 -77 124 -81 40
-168 -1 -195 -92 -26 -87 19 -169 108 -199 21 -7 6 -168 -23 -234 -11 -24 -17
-43 -14 -43 9 0 -74 -115 -103 -143 -16 -15 -39 -29 -50 -31 -23 -5 -26 -2
-217 268 l-127 178 19 22 c72 78 59 191 -28 237 -87 47 -196 -5 -215 -102 -13
-65 41 -150 103 -164 37 -8 49 -21 55 -62 3 -17 8 -36 11 -41 3 -4 7 -19 10
-33 2 -13 28 -118 56 -234 29 -115 54 -221 56 -235 2 -14 7 -36 10 -50 3 -14
8 -36 10 -50 2 -14 7 -40 10 -59 3 -19 8 -52 10 -73 l5 -39 -30 16 c-17 8 -32
15 -33 14 -2 0 -20 2 -40 6 -47 9 -83 0 -109 -26 l-20 -20 25 -34 c52 -68 68
-122 64 -212 -3 -48 0 -83 5 -83 5 0 46 22 91 49 104 63 287 150 396 189 94
34 224 73 255 77 11 1 31 5 45 9 76 18 201 30 310 30 76 -1 132 -5 250 -20 19
-2 60 -7 90 -10 30 -3 66 -7 80 -9 46 -7 145 -24 173 -30 15 -3 37 -7 50 -9
12 -2 42 -9 67 -15 25 -7 52 -13 60 -15 170 -42 366 -150 461 -254 37 -40 50
-50 55 -38 3 8 3 19 1 23 -9 14 -21 125 -19 178 2 73 20 130 53 161 34 32 36
47 11 75 -41 43 -78 41 -161 -9 -24 -15 -24 -21 -6 83 3 17 8 46 11 65 7 46
78 377 98 460 9 36 31 108 49 160 l32 95 42 8 c30 6 51 19 77 47 20 22 37 46
37 53 1 6 3 28 4 47 5 51 -11 92 -48 127 -38 36 -82 45 -134 26z"/>
<path d="M2632 2632 l-44 -3 6 -185 c3 -102 8 -189 11 -194 3 -5 1 -11 -5 -15
-6 -4 -8 -11 -4 -16 3 -5 7 -55 9 -111 l4 -102 -27 34 c-20 26 -288 398 -403
561 -9 12 -29 15 -107 13 -54 -2 -134 -3 -180 -3 l-83 -1 5 -132 c8 -186 18
-550 20 -696 l1 -124 25 5 c14 3 72 21 130 41 l106 37 -3 57 c-1 31 -4 143 -7
249 -2 106 -7 197 -11 203 -3 5 -4 10 -1 10 2 0 21 -24 42 -52 22 -29 42 -57
47 -63 5 -5 42 -57 83 -115 42 -58 84 -116 94 -130 10 -14 47 -65 83 -115 l64
-90 154 0 c85 0 172 2 194 5 l39 5 -1 45 c0 39 -6 236 -17 615 -2 55 -4 138
-5 185 l-1 86 -87 -1 c-49 0 -108 -1 -131 -3z"/>
<path d="M3220 2573 c-85 -42 -133 -127 -145 -258 -3 -39 -8 -81 -10 -95 -13
-76 -20 -178 -20 -275 1 -95 4 -116 24 -154 30 -57 65 -86 126 -105 68 -21 82
-23 270 -41 92 -9 161 -17 180 -21 11 -3 65 -7 120 -9 87 -4 106 -2 142 16 23
11 49 31 57 44 21 32 43 118 51 197 3 35 8 74 10 88 11 60 16 150 8 151 -4 0
-20 2 -35 4 -15 2 -49 6 -75 9 -26 3 -66 8 -88 11 -22 2 -65 7 -95 9 -30 3
-75 8 -100 11 -86 11 -110 13 -111 6 0 -3 -2 -15 -4 -26 -3 -11 -7 -46 -10
-77 -6 -58 -6 -58 22 -59 15 -1 37 -3 48 -4 11 -2 49 -6 85 -10 95 -9 93 -8
85 -62 -3 -25 -10 -54 -15 -63 -12 -22 -48 -32 -92 -26 -18 3 -58 7 -88 11
-141 14 -167 18 -197 30 -59 25 -75 79 -58 195 3 19 7 62 10 95 11 123 34 178
84 197 26 10 109 11 166 3 17 -3 50 -7 74 -9 107 -11 122 -17 136 -49 7 -17
11 -36 8 -43 -4 -12 12 -27 32 -30 12 -2 109 -12 183 -19 37 -4 52 -2 53 7 6
60 8 79 9 119 2 59 -28 129 -68 157 -35 25 -124 50 -202 57 -49 5 -139 15
-265 31 -22 3 -88 7 -147 9 -99 3 -111 2 -158 -22z"/>
<path d="M1497 2563 c-1 -1 -29 -5 -61 -8 -33 -4 -67 -9 -75 -10 -9 -2 -22 -4
-29 -4 -7 -1 -11 -4 -9 -8 3 -5 8 -36 11 -70 10 -92 16 -145 21 -169 2 -11 7
-45 11 -75 3 -30 8 -65 10 -79 3 -14 7 -45 9 -70 5 -49 11 -96 20 -150 3 -19
7 -57 10 -85 3 -27 7 -59 9 -70 2 -11 7 -49 11 -85 4 -36 9 -67 11 -69 4 -4
42 10 124 47 30 13 72 31 92 39 40 16 39 10 23 124 -9 62 -21 157 -30 234 -3
28 -10 78 -16 112 -5 34 -9 66 -8 70 1 4 0 10 -1 13 -3 9 -7 35 -14 95 -4 33
-9 76 -12 95 -7 52 -12 93 -13 113 -1 15 -9 17 -47 15 -25 -2 -46 -4 -47 -5z"/>
<path d="M835 2457 c-82 -21 -151 -41 -153 -45 -1 -4 -39 -75 -85 -157 -45
-83 -91 -167 -101 -187 -30 -57 -49 -76 -76 -80 -24 -3 -26 1 -67 160 -23 90
-44 166 -47 169 -3 4 -23 1 -43 -5 -21 -6 -60 -16 -88 -23 -75 -17 -115 -32
-115 -42 0 -5 7 -37 16 -71 9 -33 18 -69 20 -80 2 -10 10 -42 18 -70 8 -28 17
-62 20 -76 2 -14 23 -99 46 -190 23 -91 44 -174 46 -185 10 -50 55 -219 60
-224 7 -7 234 108 234 119 0 4 -16 70 -35 147 -19 76 -35 141 -35 145 0 3 13
11 29 16 30 11 15 19 344 -193 49 -32 96 -59 106 -62 11 -3 86 12 167 33 82
20 157 37 167 38 9 0 17 2 17 4 0 6 -44 41 -52 42 -3 0 -57 32 -120 70 -62 39
-120 75 -128 79 -129 77 -260 165 -260 174 0 7 6 21 14 32 7 11 40 70 71 130
32 61 61 112 64 115 3 3 16 25 28 50 12 25 42 81 67 126 24 44 39 80 33 80 -7
0 -79 -18 -162 -39z"/>
<path d="M4425 2417 c-71 -23 -105 -78 -144 -228 -40 -157 -28 -235 45 -280
29 -17 213 -76 264 -84 8 -1 22 -5 30 -8 8 -4 64 -20 123 -36 116 -32 136 -46
132 -93 -6 -67 -41 -108 -90 -103 -21 2 -234 58 -293 76 -41 13 -66 57 -53 92
8 20 6 26 -7 30 -50 16 -237 66 -238 64 -9 -10 -31 -113 -33 -152 -3 -85 51
-143 176 -186 131 -45 535 -149 578 -149 99 0 157 56 201 194 50 158 45 235
-19 299 -43 43 -82 60 -247 106 -291 82 -295 83 -309 110 -6 11 -11 36 -11 55
0 64 57 92 136 67 16 -5 65 -19 109 -31 92 -25 141 -45 152 -63 4 -6 10 -30
13 -51 5 -37 8 -40 55 -53 28 -7 61 -16 75 -19 14 -2 34 -8 45 -11 77 -25 77
-26 95 57 29 134 10 186 -85 237 -33 18 -78 36 -100 42 -22 5 -65 17 -95 26
-30 9 -62 18 -70 20 -239 69 -377 92 -435 72z"/>
<path d="M1987 1048 c-55 -12 -93 -34 -120 -70 -44 -60 -51 -89 -51 -203 0
-70 5 -100 21 -136 21 -48 73 -96 114 -105 36 -9 142 -11 159 -3 94 43 120 71
146 155 16 55 18 163 4 215 -32 114 -144 175 -273 147z m136 -75 c49 -29 71
-84 71 -178 1 -142 -50 -209 -160 -208 -99 1 -146 61 -147 192 0 42 5 92 11
112 31 91 141 131 225 82z"/>
<path d="M3885 1050 c-55 -9 -98 -33 -134 -77 -81 -98 -76 -300 9 -388 54 -56
147 -75 229 -48 59 20 80 39 77 69 -3 28 -8 28 -58 3 -123 -63 -239 16 -240
164 -1 136 53 217 144 218 43 0 55 -3 105 -29 44 -23 53 -18 45 26 -8 40 -102
73 -177 62z"/>
<path d="M1280 1041 c-12 -8 -15 -50 -15 -256 l0 -246 22 -5 c48 -12 49 -9 48
210 0 113 2 206 5 206 3 0 15 -21 27 -48 44 -93 172 -327 192 -349 22 -25 72
-31 88 -10 7 9 11 432 4 493 -1 9 -38 12 -61 6 -3 -1 -5 -92 -5 -202 0 -110
-2 -196 -6 -192 -3 4 -34 61 -69 127 -62 117 -114 213 -136 249 -12 20 -72 31
-94 17z"/>
<path d="M2442 1042 c-9 -6 -12 -64 -13 -238 0 -126 0 -239 1 -252 0 -20 4
-23 33 -20 l32 3 1 110 1 110 48 -1 c60 -1 80 -23 126 -141 31 -81 33 -83 65
-83 23 0 34 5 34 15 0 25 -78 198 -99 218 -19 20 -19 20 12 41 39 27 57 60 57
109 0 55 -19 86 -70 116 -27 15 -208 26 -228 13z m190 -70 c26 -15 40 -43 34
-72 -10 -62 -38 -80 -119 -80 l-52 0 0 84 0 84 55 0 c30 0 67 -8 82 -16z"/>
<path d="M2932 1041 c-10 -6 -13 -62 -14 -248 0 -132 2 -245 6 -252 10 -16
213 -8 257 11 85 37 129 115 130 230 1 40 -2 85 -5 100 -14 64 -68 124 -133
149 -35 14 -223 22 -241 10z m229 -77 c47 -27 73 -84 77 -169 3 -58 -1 -78
-20 -114 -34 -66 -64 -83 -152 -89 l-75 -4 -3 113 c-2 63 -2 153 0 201 l3 87
68 -3 c45 -2 80 -9 102 -22z"/>
<path d="M3476 1041 c-5 -7 -9 -346 -6 -489 0 -20 4 -23 33 -20 l32 3 0 255 0
255 -27 3 c-14 2 -29 -1 -32 -7z"/>
</g>
</svg>
